<?xml version="1.0" encoding="UTF-8"?>
<!DOCTYPE svg PUBLIC "-//W3C//DTD SVG 1.1//EN" "http://www.w3.org/Graphics/SVG/1.1/DTD/svg11.dtd">
<svg xmlns="http://www.w3.org/2000/svg" version="1.1" width="512px" height="512px" style="shape-rendering:geometricPrecision; text-rendering:geometricPrecision; image-rendering:optimizeQuality; fill-rule:evenodd; clip-rule:evenodd" xmlns:xlink="http://www.w3.org/1999/xlink">
<g><path style="opacity:0.931" fill="#000000" d="M 511.5,195.5 C 511.5,248.833 511.5,302.167 511.5,355.5C 509.018,361.48 504.685,365.647 498.5,368C 484.545,369.388 470.545,369.888 456.5,369.5C 456.667,395.169 456.5,420.835 456,446.5C 453.287,455.214 447.454,460.381 438.5,462C 357.798,462.986 277.131,462.652 196.5,461C 180.468,450.975 164.968,440.142 150,428.5C 148.139,426.112 146.806,423.446 146,420.5C 145.5,410.172 145.334,399.839 145.5,389.5C 113.459,389.963 81.4586,389.463 49.5,388C 35.2247,378.724 21.2247,369.057 7.5,359C 3.96319,356.06 1.29652,352.56 -0.5,348.5C -0.5,299.833 -0.5,251.167 -0.5,202.5C 2.28917,196.213 6.95583,191.713 13.5,189C 44.1649,188.5 74.8315,188.333 105.5,188.5C 105.333,147.165 105.5,105.832 106,64.5C 108.725,55.7727 114.558,50.606 123.5,49C 189.536,48.0175 255.536,48.3508 321.5,50C 335.441,58.9425 349.108,68.2758 362.5,78C 366.092,80.921 368.925,84.421 371,88.5C 372.457,110.78 372.957,133.114 372.5,155.5C 401.835,155.333 431.169,155.5 460.5,156C 475.513,165.506 490.18,175.506 504.5,186C 507.465,188.79 509.798,191.957 511.5,195.5 Z M 136.5,64.5 C 165.664,63.3362 194.997,63.1695 224.5,64C 232.657,70.2451 240.99,76.2451 249.5,82C 220.167,82.6667 190.833,82.6667 161.5,82C 153.138,76.157 144.804,70.3236 136.5,64.5 Z M 249.5,64.5 C 271.996,63.337 294.663,63.1704 317.5,64C 325.657,70.2451 333.99,76.2451 342.5,82C 319.833,82.6667 297.167,82.6667 274.5,82C 266.138,76.157 257.804,70.3236 249.5,64.5 Z M 119.5,70.5 C 130.058,77.7004 140.558,85.0338 151,92.5C 151.5,124.498 151.667,156.498 151.5,188.5C 140.833,188.5 130.167,188.5 119.5,188.5C 119.5,149.167 119.5,109.833 119.5,70.5 Z M 166.5,96.5 C 230.5,96.5 294.5,96.5 358.5,96.5C 358.5,116.167 358.5,135.833 358.5,155.5C 335.164,155.333 311.831,155.5 288.5,156C 281.763,157.736 277.263,161.903 275,168.5C 274.5,203.832 274.333,239.165 274.5,274.5C 268.5,274.5 262.5,274.5 256.5,274.5C 256.667,259.496 256.5,244.496 256,229.5C 254.998,225.836 253.164,222.669 250.5,220C 236.341,209.754 222.008,199.754 207.5,190C 193.907,188.554 180.24,188.054 166.5,188.5C 166.5,157.833 166.5,127.167 166.5,96.5 Z M 192.5,122.5 C 198.833,122.5 205.167,122.5 211.5,122.5C 211.5,126.833 211.5,131.167 211.5,135.5C 205.167,135.5 198.833,135.5 192.5,135.5C 192.5,131.167 192.5,126.833 192.5,122.5 Z M 304.5,170.5 C 326.996,169.337 349.663,169.17 372.5,170C 381.01,175.755 389.343,181.755 397.5,188C 374.833,188.667 352.167,188.667 329.5,188C 321.458,181.655 313.125,175.821 304.5,170.5 Z M 397.5,170.5 C 416.996,169.338 436.662,169.171 456.5,170C 465.01,175.755 473.343,181.755 481.5,188C 461.833,188.667 442.167,188.667 422.5,188C 414.458,181.655 406.125,175.821 397.5,170.5 Z M 288.5,176.5 C 298.815,183.808 309.149,191.142 319.5,198.5C 320.5,223.825 320.833,249.158 320.5,274.5C 309.833,274.5 299.167,274.5 288.5,274.5C 288.5,241.833 288.5,209.167 288.5,176.5 Z M 29.5,203.5 C 55.6635,202.337 81.9968,202.17 108.5,203C 116.657,209.245 124.99,215.245 133.5,221C 107.167,221.667 80.8333,221.667 54.5,221C 46.1376,215.157 37.8043,209.324 29.5,203.5 Z M 133.5,203.5 C 155.663,202.337 177.996,202.17 200.5,203C 209.167,209 217.833,215 226.5,221C 203.833,221.667 181.167,221.667 158.5,221C 150.138,215.157 141.804,209.324 133.5,203.5 Z M 334.5,202.5 C 388.833,202.5 443.167,202.5 497.5,202.5C 497.667,252.168 497.5,301.834 497,351.5C 496.167,352.333 495.333,353.167 494.5,354C 481.838,354.5 469.171,354.667 456.5,354.5C 456.667,342.162 456.5,329.829 456,317.5C 454.819,313.637 452.986,310.137 450.5,307C 436.5,297 422.5,287 408.5,277C 406.212,276.178 403.878,275.511 401.5,275C 379.169,274.5 356.836,274.333 334.5,274.5C 334.5,250.5 334.5,226.5 334.5,202.5 Z M 13.5,210.5 C 24.3784,217.199 34.8784,224.532 45,232.5C 45.6667,277.5 45.6667,322.5 45,367.5C 34.3101,360.321 23.9768,352.654 14,344.5C 13.5,299.835 13.3333,255.168 13.5,210.5 Z M 59.5,235.5 C 120.5,235.5 181.5,235.5 242.5,235.5C 242.5,248.5 242.5,261.5 242.5,274.5C 215.831,274.333 189.165,274.5 162.5,275C 154.002,276.488 148.502,281.322 146,289.5C 145.5,317.831 145.333,346.165 145.5,374.5C 116.833,374.5 88.1667,374.5 59.5,374.5C 59.5,328.167 59.5,281.833 59.5,235.5 Z M 176.5,290.5 C 212.331,289.336 248.331,289.169 284.5,290C 292.657,296.245 300.99,302.245 309.5,308C 273.5,308.667 237.5,308.667 201.5,308C 193.138,302.157 184.804,296.324 176.5,290.5 Z M 309.5,290.5 C 339.997,289.336 370.664,289.169 401.5,290C 410.01,295.755 418.343,301.755 426.5,308C 395.833,308.667 365.167,308.667 334.5,308C 326.487,301.664 318.154,295.831 309.5,290.5 Z M 159.5,296.5 C 170.378,303.199 180.878,310.532 191,318.5C 191.667,359.167 191.667,399.833 191,440.5C 181.833,434 172.667,427.5 163.5,421C 161.951,419.786 160.785,418.286 160,416.5C 159.5,376.501 159.333,336.501 159.5,296.5 Z M 206.5,322.5 C 285.167,322.5 363.833,322.5 442.5,322.5C 442.667,362.501 442.5,402.501 442,442.5C 441.417,444.002 440.584,445.335 439.5,446.5C 361.874,447.497 284.208,447.83 206.5,447.5C 206.5,405.833 206.5,364.167 206.5,322.5 Z"/></g>
<g><path style="opacity:0.927" fill="#000000" d="M 189.5,108.5 C 220.7,101.529 232.2,113.195 224,143.5C 222.062,146.106 219.562,147.939 216.5,149C 207.167,149.667 197.833,149.667 188.5,149C 183.333,147.833 180.167,144.667 179,139.5C 178.333,132.5 178.333,125.5 179,118.5C 181.106,113.557 184.606,110.224 189.5,108.5 Z M 192.5,122.5 C 192.5,126.833 192.5,131.167 192.5,135.5C 198.833,135.5 205.167,135.5 211.5,135.5C 211.5,131.167 211.5,126.833 211.5,122.5C 205.167,122.5 198.833,122.5 192.5,122.5 Z"/></g>
<g><path style="opacity:0.874" fill="#000000" d="M 352.5,221.5 C 360.507,221.334 368.507,221.5 376.5,222C 382.209,225.545 382.875,229.879 378.5,235C 369.153,236.97 359.82,236.97 350.5,235C 347.651,232.441 346.817,229.274 348,225.5C 349.25,223.807 350.75,222.473 352.5,221.5 Z"/></g>
<g><path style="opacity:0.913" fill="#000000" d="M 86.5,308.5 C 95.5062,308.334 104.506,308.5 113.5,309C 119.052,313.789 118.719,318.122 112.5,322C 104.167,322.667 95.8333,322.667 87.5,322C 84.3171,320.982 82.9838,318.815 83.5,315.5C 83.6667,314.167 83.8333,312.833 84,311.5C 85.045,310.627 85.8783,309.627 86.5,308.5 Z"/></g>
<g><path style="opacity:0.872" fill="#000000" d="M 88.5,334.5 C 103.17,334.333 117.837,334.5 132.5,335C 137.434,337.665 138.601,341.498 136,346.5C 134.829,347.893 133.329,348.727 131.5,349C 117.5,349.667 103.5,349.667 89.5,349C 83.3849,346.728 81.8849,342.561 85,336.5C 86.3024,335.915 87.469,335.249 88.5,334.5 Z"/></g>
<g><path style="opacity:0.913" fill="#000000" d="M 221.5,388.5 C 230.839,388.334 240.173,388.5 249.5,389C 253.957,394.135 253.29,398.468 247.5,402C 239.5,402.667 231.5,402.667 223.5,402C 217.591,398.376 216.925,393.876 221.5,388.5 Z"/></g>
<g><path style="opacity:0.923" fill="#000000" d="M 222.5,414.5 C 237.837,414.333 253.17,414.5 268.5,415C 273.426,418.912 273.759,423.245 269.5,428C 253.5,428.667 237.5,428.667 221.5,428C 217.285,423.134 217.618,418.634 222.5,414.5 Z"/></g>
</svg>
