<?xml version="1.0" encoding="UTF-8"?>
<!DOCTYPE svg PUBLIC "-//W3C//DTD SVG 1.1//EN" "http://www.w3.org/Graphics/SVG/1.1/DTD/svg11.dtd">
<svg xmlns="http://www.w3.org/2000/svg" version="1.1" width="512px" height="512px" style="shape-rendering:geometricPrecision; text-rendering:geometricPrecision; image-rendering:optimizeQuality; fill-rule:evenodd; clip-rule:evenodd" xmlns:xlink="http://www.w3.org/1999/xlink">
<g><path style="opacity:0.932" fill="#000000" d="M 168.5,39.5 C 195.169,39.3334 221.835,39.5 248.5,40C 258.789,42.3602 264.622,48.8602 266,59.5C 275.219,61.0208 282.052,65.8541 286.5,74C 299.481,73.5066 312.481,73.5066 325.5,74C 328.458,74.2293 330.958,75.396 333,77.5C 334.493,141.084 334.993,204.75 334.5,268.5C 392.295,277.796 423.628,311.629 428.5,370C 425.31,424.044 397.31,457.044 344.5,469C 306.045,475.193 273.878,463.693 248,434.5C 243.545,429.095 239.712,423.261 236.5,417C 186.833,416.667 137.167,416.333 87.5,416C 84.9057,414.661 83.4057,412.494 83,409.5C 82.3333,299.833 82.3333,190.167 83,80.5C 83.3935,77.1071 85.2268,74.9404 88.5,74C 103.178,73.8328 117.845,73.3328 132.5,72.5C 136.308,64.8648 142.475,60.5314 151,59.5C 152.483,48.7799 158.317,42.1132 168.5,39.5 Z M 170.5,54.5 C 195.836,54.3334 221.169,54.5 246.5,55C 248.5,55.6667 249.833,57 250.5,59C 222.5,59.6667 194.5,59.6667 166.5,59C 167.357,56.9812 168.691,55.4812 170.5,54.5 Z M 150.5,74.5 C 189.881,74.0237 229.215,74.5237 268.5,76C 269.333,76.8333 270.167,77.6667 271,78.5C 271.667,90.8333 271.667,103.167 271,115.5C 269.786,117.049 268.286,118.215 266.5,119C 227.107,119.982 187.774,119.649 148.5,118C 147.299,117.097 146.465,115.931 146,114.5C 145.333,102.5 145.333,90.5 146,78.5C 147.397,76.9297 148.897,75.5964 150.5,74.5 Z M 97.5,88.5 C 108.5,88.5 119.5,88.5 130.5,88.5C 130.5,93.8333 130.5,99.1667 130.5,104.5C 125.733,104.191 121.066,104.691 116.5,106C 115.107,107.171 114.273,108.671 114,110.5C 113.333,200.5 113.333,290.5 114,380.5C 114.785,382.286 115.951,383.786 117.5,385C 153.832,385.5 190.165,385.667 226.5,385.5C 227.5,390.833 228.5,396.167 229.5,401.5C 185.5,401.5 141.5,401.5 97.5,401.5C 97.5,297.167 97.5,192.833 97.5,88.5 Z M 286.5,88.5 C 297.5,88.5 308.5,88.5 319.5,88.5C 319.5,148.5 319.5,208.5 319.5,268.5C 314.18,269.26 308.847,269.927 303.5,270.5C 303.667,216.832 303.5,163.166 303,109.5C 302.065,106.898 300.232,105.398 297.5,105C 293.848,104.501 290.182,104.335 286.5,104.5C 286.5,99.1667 286.5,93.8333 286.5,88.5 Z M 128.5,119.5 C 129.552,119.351 130.552,119.517 131.5,120C 135.261,128.087 141.595,132.754 150.5,134C 189.167,134.667 227.833,134.667 266.5,134C 275.405,132.754 281.739,128.087 285.5,120C 286.448,119.517 287.448,119.351 288.5,119.5C 288.667,171.501 288.5,223.501 288,275.5C 247.758,294.268 226.925,325.934 225.5,370.5C 193.167,370.5 160.833,370.5 128.5,370.5C 128.5,286.833 128.5,203.167 128.5,119.5 Z M 315.5,283.5 C 368.614,281.801 400.781,306.801 412,358.5C 415.233,405.552 394.733,437.052 350.5,453C 308.566,462.105 275.733,448.938 252,413.5C 234.153,377.928 237.153,344.261 261,312.5C 275.643,296.097 293.809,286.43 315.5,283.5 Z M 377.5,334.5 C 380.524,334.364 382.024,335.698 382,338.5C 359.624,361.377 336.79,383.71 313.5,405.5C 299.514,392.014 285.681,378.347 272,364.5C 270.746,360.889 271.912,359.389 275.5,360C 286.833,371.333 298.167,382.667 309.5,394C 311.695,395.373 314.029,395.706 316.5,395C 337.34,375.327 357.673,355.16 377.5,334.5 Z"/></g>
<g><path style="opacity:0.926" fill="#000000" d="M 152.5,170.5 C 189.835,170.333 227.168,170.5 264.5,171C 267.265,173.995 268.098,177.495 267,181.5C 265.681,183.487 263.848,184.654 261.5,185C 226.167,185.667 190.833,185.667 155.5,185C 149.941,183.542 148.108,180.042 150,174.5C 150.662,173.016 151.496,171.683 152.5,170.5 Z"/></g>
<g><path style="opacity:0.926" fill="#000000" d="M 155.5,208.5 C 190.835,208.333 226.168,208.5 261.5,209C 265.324,209.82 267.324,212.154 267.5,216C 267.592,218.814 266.592,221.147 264.5,223C 227.167,223.667 189.833,223.667 152.5,223C 147.741,216.75 148.741,211.917 155.5,208.5 Z"/></g>
<g><path style="opacity:0.926" fill="#000000" d="M 154.5,247.5 C 190.502,247.333 226.502,247.5 262.5,248C 267.687,250.867 268.854,255.033 266,260.5C 265.25,261.126 264.416,261.626 263.5,262C 226.833,262.667 190.167,262.667 153.5,262C 149.788,259.487 148.622,255.987 150,251.5C 151.397,249.93 152.897,248.596 154.5,247.5 Z"/></g>
<g><path style="opacity:0.919" fill="#000000" d="M 153.5,286.5 C 177.836,286.333 202.169,286.5 226.5,287C 231.779,292.059 231.446,296.726 225.5,301C 201.5,301.667 177.5,301.667 153.5,301C 150.634,299.607 149.301,297.274 149.5,294C 149.43,290.634 150.763,288.134 153.5,286.5 Z"/></g>
<g><path style="opacity:0.922" fill="#000000" d="M 373.5,319.5 C 383.665,318 391.165,321.666 396,330.5C 398.148,335.984 397.815,341.317 395,346.5C 371.859,369.308 349.026,392.474 326.5,416C 319.593,421.113 312.26,421.779 304.5,418C 288.304,402.138 272.471,385.971 257,369.5C 253.78,358.441 257.28,350.274 267.5,345C 275.11,343.18 281.777,344.846 287.5,350C 296.348,359.014 305.348,367.848 314.5,376.5C 333.91,357.087 353.577,338.087 373.5,319.5 Z M 377.5,334.5 C 357.673,355.16 337.34,375.327 316.5,395C 314.029,395.706 311.695,395.373 309.5,394C 298.167,382.667 286.833,371.333 275.5,360C 271.912,359.389 270.746,360.889 272,364.5C 285.681,378.347 299.514,392.014 313.5,405.5C 336.79,383.71 359.624,361.377 382,338.5C 382.024,335.698 380.524,334.364 377.5,334.5 Z"/></g>
<g><path style="opacity:0.916" fill="#000000" d="M 152.5,325.5 C 170.17,325.333 187.836,325.5 205.5,326C 209.565,329.096 210.398,332.929 208,337.5C 206.829,338.893 205.329,339.727 203.5,340C 187.167,340.667 170.833,340.667 154.5,340C 148.575,336.023 147.908,331.19 152.5,325.5 Z"/></g>
</svg>
